<?xml version="1.0" encoding="utf-8"?>
<!-- Generator: Adobe Illustrator 22.1.0, SVG Export Plug-In . SVG Version: 6.00 Build 0)  -->
<svg version="1.1" id="Calque_1" xmlns="http://www.w3.org/2000/svg" xmlns:xlink="http://www.w3.org/1999/xlink" x="0px" y="0px"
	 viewBox="0 0 279.2 131.6" style="enable-background:new 0 0 279.2 131.6;" xml:space="preserve">
<style type="text/css">
	.st0{fill:#E1355F;}
	.st1{fill:#0765B0;}
	.st2{fill:#FAB52B;}
	.st3{fill:#FFFFFF;}
	.st4{fill:#1C2D50;}
	.st5{enable-background:new    ;}
</style>
<g id="Groupe_4" transform="translate(686.352 756.904)">
	<path class="st0" d="M-586.3-641.4c-0.8,0-1.5-0.3-2.1-0.9l-82.7-82.7c-1.2-1.2-1.2-3.1,0-4.2c1.2-1.2,3.1-1.2,4.2,0l82.7,82.7
		c1.2,1.2,1.2,3.1,0,4.2C-584.8-641.7-585.5-641.4-586.3-641.4z"/>
	<path class="st1" d="M-605.9-641.4c-0.8,0-1.5-0.3-2.1-0.9l-63.3-63.3c-1.2-1.2-1.2-3.1,0-4.2c1.2-1.2,3.1-1.2,4.2,0l63.3,63.3
		c1.2,1.2,1.2,3.1,0,4.2C-604.3-641.7-605.1-641.4-605.9-641.4z"/>
	<path class="st2" d="M-625.1-641.1c-0.8,0-1.5-0.3-2.1-0.9l-43.9-43.9c-1.2-1.2-1.2-3.1,0-4.2c1.2-1.2,3.1-1.2,4.2,0l43.9,43.9
		c1.2,1.2,1.2,3.1,0,4.2C-623.5-641.4-624.3-641.1-625.1-641.1z"/>
</g>
<g>
	<rect id="Rectangle_9_1_" x="37.5" y="20.9" class="st3" width="224.2" height="73.8"/>
	<path class="st4" d="M264.8,97.7H34.5V17.9h230.2L264.8,97.7L264.8,97.7z M40.5,91.7h218.2V23.9H40.5V91.7z"/>
</g>
<g class="st5">
	<path class="st4" d="M71.5,51.1v22.4c0,5.3-1.1,9.3-7.1,9.3c-1,0-1.9-0.1-2.9-0.4l0.4-4.6c0.6,0.1,1.1,0.2,1.7,0.2
		c2.6,0,2.6-2.6,2.6-4.5V51.1H71.5z M68.8,40.7c1.9,0,3.4,1.4,3.4,3.2c0,1.8-1.5,3.2-3.4,3.2c-1.9,0-3.3-1.5-3.3-3.2
		C65.5,42.2,66.9,40.7,68.8,40.7z"/>
	<path class="st4" d="M90.8,69.3h-0.1c-1.5,2.4-4,3.4-6.8,3.4c-3.9,0-7.7-2.2-7.7-6.3c0-6.9,8-7.3,13.3-7.3h1.3v-0.6
		c0-2.6-2-4-4.8-4c-2.2,0-4.2,0.9-5.6,2.2l-2.8-2.8c2.3-2.4,5.6-3.4,9-3.4c9,0,9,6.5,9,9.5v12.1h-4.8V69.3z M90.5,62.7h-1.1
		c-2.9,0-7.9,0.2-7.9,3.3c0,1.9,2,2.8,3.7,2.8c3.6,0,5.3-1.9,5.3-4.8V62.7z"/>
	<path class="st4" d="M101,51.1h5v3.3h0.1c0.9-2,2.9-3.8,6.5-3.8c3.3,0,5.5,1.3,6.6,3.9c1.5-2.7,3.8-3.9,7-3.9c5.6,0,7.6,4,7.6,9.1
		v12.6h-5.3v-12c0-2.6-0.8-4.9-3.9-4.9c-3.3,0-4.5,2.7-4.5,5.5v11.4h-5.3V59.6c0-2.6-1.1-4.3-3.6-4.3c-3.5,0-4.8,2.6-4.8,5.4v11.5
		H101V51.1z"/>
</g>
<g class="st5">
	<path class="st1" d="M156.2,69L156.2,69c-1.6,2.6-4.4,3.7-7.3,3.7c-6.5,0-10.4-4.8-10.4-11.1c0-6.2,4.2-11.1,10.2-11.1
		c4,0,6.1,1.8,7.2,3.2h0.1V38.9h5.3v33.3h-5V69z M149.9,68c3.9,0,6.2-3,6.2-6.3c0-3.3-2.3-6.3-6.2-6.3s-6.2,3-6.2,6.3
		C143.7,64.9,146.1,68,149.9,68z"/>
	<path class="st1" d="M169.9,40.7c1.9,0,3.4,1.4,3.4,3.2c0,1.8-1.5,3.2-3.4,3.2s-3.3-1.5-3.3-3.2C166.6,42.2,168,40.7,169.9,40.7z
		 M167.3,51.1h5.3v21.1h-5.3V51.1z"/>
	<path class="st1" d="M180.6,55.6h-4.4v-4.5h4.4v-3c0-5.9,1.3-9.7,7.9-9.7c1.1,0,2.2,0.1,3.3,0.3l-0.4,4.5c-0.7-0.2-1.5-0.3-2.2-0.3
		c-2.9,0-3.4,2-3.4,4.4v3.8h4.9v4.5h-4.9v16.6h-5.3V55.6z"/>
	<path class="st1" d="M213.4,72.2h-5v-3.4h-0.1c-1,2.1-2.9,3.9-6.5,3.9c-5.7,0-7.7-4-7.7-8.3V51.1h5.3v10.7c0,2.3,0.2,6.2,3.9,6.2
		c3.5,0,4.8-2.6,4.8-5.4V51.1h5.3V72.2z"/>
	<path class="st1" d="M230.7,56.9c-1-1.4-2.3-2.2-4.1-2.2c-1.4,0-3.1,0.7-3.1,2.2c0,3.8,11.4,0.7,11.4,8.9c0,5-4.8,6.8-9.1,6.8
		c-3.3,0-6.1-0.8-8.2-3.3l3.5-3.3c1.4,1.5,2.8,2.6,5,2.6c1.5,0,3.5-0.7,3.5-2.4c0-4.4-11.4-0.9-11.4-9c0-4.7,4.2-6.8,8.5-6.8
		c2.8,0,5.8,0.9,7.5,3.2L230.7,56.9z"/>
</g>
<g id="Groupe_5" transform="translate(907.147 766.68)">
	<path id="Tracé_1" class="st1" d="M-665.9-727.1c0.6,0,1.2,0.1,1.7,0.4c0.5,0.2,0.8,0.6,1.1,1s0.5,0.9,0.6,1.4
		c0.1,0.6,0.2,1.2,0.2,1.8c0,1.3-0.3,2.5-1,3.6c-0.7,1.2-1.8,2.1-3.1,2.6l-0.4-0.7c0.8-0.3,1.4-0.8,2-1.4c0.5-0.6,0.9-1.2,1-2
		c0.1-0.5,0.1-1.1,0-1.6c-0.6,0.6-1.4,1-2.3,0.9c-0.8,0-1.6-0.3-2.2-0.8c-0.6-0.6-0.9-1.4-0.9-2.2s0.3-1.6,0.9-2.2
		C-667.6-726.8-666.8-727.1-665.9-727.1z"/>
</g>
</svg>
